<?xml version="1.0" encoding="UTF-8" standalone="no"?>
<svg
   width="445"
   height="160"
   viewBox="0 0 445 160"
   version="1.1"
   id="svg93"
   xmlns="http://www.w3.org/2000/svg"
   xmlns:svg="http://www.w3.org/2000/svg">
  <defs
     id="defs97" />
  <svg
     x="21"
     y="21"
     width="118"
     height="118"
     viewBox="0 0 1024 1024"
     version="1.1"
     id="svg83">
    <defs
       id="defs47">
      <radialGradient
         id="radarBg"
         cx="0.5"
         cy="0.5"
         r="0.57999998">
        <stop
           offset="0%"
           stop-color="#102b3c"
           id="stop2" />
        <stop
           offset="72%"
           stop-color="#0b2433"
           id="stop4" />
        <stop
           offset="100%"
           stop-color="#071b28"
           id="stop6" />
      </radialGradient>
      <linearGradient
         id="blueRing"
         x1="120"
         y1="90"
         x2="880"
         y2="920"
         gradientUnits="userSpaceOnUse">
        <stop
           offset="0%"
           stop-color="#7ddcff"
           id="stop9" />
        <stop
           offset="48%"
           stop-color="#4fc8f4"
           id="stop11" />
        <stop
           offset="100%"
           stop-color="#39bff0"
           id="stop13" />
      </linearGradient>
      <linearGradient
         id="sweepBody"
         x1="817.46997"
         y1="206.53"
         x2="645.5"
         y2="101.14"
         gradientUnits="userSpaceOnUse">
        <stop
           offset="0%"
           stop-color="#7dff78"
           stop-opacity="0.82"
           id="stop16" />
        <stop
           offset="24%"
           stop-color="#5df36a"
           stop-opacity="0.58"
           id="stop18" />
        <stop
           offset="58%"
           stop-color="#4ade5a"
           stop-opacity="0.28"
           id="stop20" />
        <stop
           offset="100%"
           stop-color="#4ade5a"
           stop-opacity="0"
           id="stop22" />
      </linearGradient>
      <linearGradient
         id="sweepEdge"
         x1="512"
         y1="512"
         x2="817.46997"
         y2="206.53"
         gradientUnits="userSpaceOnUse">
        <stop
           offset="0%"
           stop-color="#76ff73"
           stop-opacity="0.28"
           id="stop25" />
        <stop
           offset="68%"
           stop-color="#82ff76"
           stop-opacity="0.92"
           id="stop27" />
        <stop
           offset="100%"
           stop-color="#e0ffd2"
           stop-opacity="1"
           id="stop29" />
      </linearGradient>
      <filter
         id="greenGlow"
         x="-0.14240351"
         y="-0.14240351"
         width="1.284807"
         height="1.284807">
        <feGaussianBlur
           stdDeviation="15"
           result="blur"
           id="feGaussianBlur32" />
        <feColorMatrix
           in="blur"
           type="matrix"
           values="0 0 0 0 0.28 0 0 0 0 0.95 0 0 0 0 0.32 0 0 0 0.66 0"
           id="feColorMatrix34" />
        <feMerge
           id="feMerge40">
          <feMergeNode
             id="feMergeNode36" />
          <feMergeNode
             in="SourceGraphic"
             id="feMergeNode38" />
        </feMerge>
      </filter>
      <filter
         id="nodeGlow"
         x="0"
         y="0"
         width="1"
         height="1">
        <feDropShadow
           dx="0"
           dy="0"
           stdDeviation="7"
           flood-color="#5df06a"
           flood-opacity="0.35" />
      </filter>
      <clipPath
         id="insideRadar">
        <circle
           cx="512"
           cy="512"
           r="432"
           id="circle44" />
      </clipPath>
    </defs>
    <path
       id="circle49"
       style="fill:url(#radarBg);stroke:url(#blueRing);stroke-width:76"
       d="M 982,512 A 470,470 0 0 1 512,982 470,470 0 0 1 42,512 470,470 0 0 1 512,42 470,470 0 0 1 982,512 Z" />
    <path
       id="circle51"
       style="opacity:0.58;fill:none;stroke:#9fb0b7;stroke-width:5"
       d="M 822,512 A 310,310 0 0 1 512,822 310,310 0 0 1 202,512 310,310 0 0 1 512,202 310,310 0 0 1 822,512 Z" />
    <path
       id="circle53"
       style="opacity:0.58;fill:none;stroke:#9fb0b7;stroke-width:5"
       d="M 687,512 A 175,175 0 0 1 512,687 175,175 0 0 1 337,512 175,175 0 0 1 512,337 175,175 0 0 1 687,512 Z" />
    <path
       id="line55"
       style="opacity:0.55;stroke:#9fb0b7;stroke-width:5"
       d="M 512,72 V 952" />
    <path
       id="line57"
       style="opacity:0.55;stroke:#9fb0b7;stroke-width:5"
       d="M 72,512 H 952" />
    <path
       id="line59"
       style="opacity:0.38;stroke:#8b9ca4;stroke-width:4"
       d="M 213,213 811,811" />
    <g
       clip-path="url(#insideRadar)"
       id="g67">
      <path
         d="M 512,512 645.5,101.14 a 432,432 0 0 1 171.97,105.39 z"
         fill="url(#sweepBody)"
         filter="url(#greenGlow)"
         id="path61" />
      <path
         id="line63"
         style="stroke:url(#sweepEdge);stroke-width:15;stroke-linecap:round;filter:url(#greenGlow)"
         d="M 512,512 817.46997,206.53" />
      <path
         id="line65"
         style="opacity:0.8;stroke:#efffe6;stroke-width:4.5;stroke-linecap:round"
         d="M 512,512 817.46997,206.53" />
    </g>
    <path
       d="M 295,304 255,690 505,820 805,430"
       fill="none"
       stroke="#ffffff"
       stroke-width="10"
       stroke-linecap="round"
       stroke-linejoin="round"
       id="path69" />
    <path
       d="M 295,304 512,512 255,690"
       fill="none"
       stroke="#ffffff"
       stroke-width="8"
       stroke-linecap="round"
       stroke-linejoin="round"
       id="path71" />
    <path
       id="circle73"
       style="fill:#57e665;filter:url(#nodeGlow)"
       d="m 329,304 a 34,34 0 0 1 -34,34 34,34 0 0 1 -34,-34 34,34 0 0 1 34,-34 34,34 0 0 1 34,34 z" />
    <path
       id="circle75"
       style="fill:#ffffff"
       d="m 299,690 a 44,44 0 0 1 -44,44 44,44 0 0 1 -44,-44 44,44 0 0 1 44,-44 44,44 0 0 1 44,44 z" />
    <path
       id="circle77"
       style="fill:#57e665;filter:url(#nodeGlow)"
       d="m 553,820 a 48,48 0 0 1 -48,48 48,48 0 0 1 -48,-48 48,48 0 0 1 48,-48 48,48 0 0 1 48,48 z" />
    <path
       id="circle79"
       style="fill:#ffffff"
       d="m 847,430 a 42,42 0 0 1 -42,42 42,42 0 0 1 -42,-42 42,42 0 0 1 42,-42 42,42 0 0 1 42,42 z" />
    <path
       id="circle81"
       style="fill:#0b2433;stroke:#aab7bd;stroke-width:7"
       d="m 562,512 a 50,50 0 0 1 -50,50 50,50 0 0 1 -50,-50 50,50 0 0 1 50,-50 50,50 0 0 1 50,50 z" />
  </svg>
  <g
     aria-label="NetSonar"
     id="text89"
     style="font-weight:800;font-size:50px;font-family:Inter, Arial, Helvetica, sans-serif">
    <path
       d="M 157.71094,88 V 52.208984 h 7.03125 l 14.64843,23.901368 V 52.208984 h 6.71387 V 88 h -7.25097 L 164.4248,64.660156 V 88 Z"
       style="fill:#0b1b28"
       id="path112" />
    <path
       d="m 208.71191,79.748047 6.83594,1.147461 q -1.31836,3.759765 -4.1748,5.737304 -2.83203,1.953125 -7.1045,1.953125 -6.76269,0 -10.00976,-4.418945 -2.56348,-3.540039 -2.56348,-8.935547 0,-6.445312 3.36914,-10.083008 3.36914,-3.662109 8.52051,-3.662109 5.78613,0 9.13086,3.833008 3.34473,3.808594 3.19824,11.694336 h -17.1875 q 0.0732,3.051758 1.66016,4.760742 1.58691,1.68457 3.95508,1.68457 1.61132,0 2.70996,-0.878906 1.09863,-0.878906 1.66015,-2.832031 z m 0.39063,-6.933594 q -0.0732,-2.978516 -1.53809,-4.516601 -1.46484,-1.5625 -3.56445,-1.5625 -2.24609,0 -3.71094,1.635742 -1.46484,1.635742 -1.44043,4.443359 z"
       style="fill:#0b1b28"
       id="path114" />
    <path
       d="m 233.39453,62.072266 v 5.46875 h -4.6875 v 10.449218 q 0,3.173828 0.12207,3.710938 0.14649,0.512695 0.61035,0.854492 0.48828,0.341797 1.17188,0.341797 0.95215,0 2.75879,-0.65918 l 0.58593,5.322266 q -2.39257,1.02539 -5.41992,1.02539 -1.85547,0 -3.34472,-0.610351 -1.48926,-0.634766 -2.19727,-1.611328 -0.68359,-1.000977 -0.95215,-2.685547 -0.21972,-1.196289 -0.21972,-4.833984 V 67.541016 h -3.14942 v -5.46875 h 3.14942 v -5.151368 l 6.88476,-4.003906 v 9.155274 z"
       style="fill:#0b1b28"
       id="path116" />
    <path
       d="m 236.37305,76.354492 7.03125,-0.683594 q 0.63476,3.540039 2.56347,5.200196 1.95313,1.660156 5.24903,1.660156 3.49121,0 5.24902,-1.464844 1.78223,-1.489258 1.78223,-3.466797 0,-1.269531 -0.75684,-2.148437 -0.73242,-0.90332 -2.58789,-1.5625 -1.26953,-0.439453 -5.78613,-1.5625 -5.81055,-1.44043 -8.1543,-3.540039 -3.2959,-2.954102 -3.2959,-7.202149 0,-2.734375 1.53809,-5.102539 1.5625,-2.392578 4.46777,-3.637695 2.92969,-1.245117 7.05567,-1.245117 6.73828,0 10.13183,2.954101 3.41797,2.954102 3.58887,7.885743 l -7.22656,0.317382 q -0.46387,-2.758789 -2.00196,-3.955078 -1.51367,-1.220703 -4.56543,-1.220703 -3.14941,0 -4.93164,1.293945 -1.14746,0.830079 -1.14746,2.22168 0,1.269531 1.07422,2.172852 1.36719,1.147461 6.64063,2.392578 5.27343,1.245117 7.78808,2.58789 2.53906,1.31836 3.95508,3.637696 1.44043,2.294922 1.44043,5.688476 0,3.076172 -1.70899,5.761719 -1.70898,2.685547 -4.83398,4.003906 -3.125,1.293946 -7.78809,1.293946 -6.7871,0 -10.4248,-3.125 -3.6377,-3.149414 -4.3457,-9.155274 z"
       style="fill:#22c55e"
       id="path118" />
    <path
       d="m 269.91797,74.669922 q 0,-3.417969 1.68457,-6.616211 1.68457,-3.198242 4.76074,-4.882813 3.10059,-1.68457 6.90918,-1.68457 5.88379,0 9.64356,3.833008 3.75976,3.808594 3.75976,9.643555 0,5.883789 -3.80859,9.765625 -3.78418,3.857421 -9.5459,3.857421 -3.56445,0 -6.81152,-1.611328 -3.22266,-1.611328 -4.90723,-4.711914 -1.68457,-3.125 -1.68457,-7.592773 z m 7.03125,0.366211 q 0,3.857422 1.83105,5.908203 1.83106,2.050781 4.5166,2.050781 2.68555,0 4.49219,-2.050781 1.83106,-2.050781 1.83106,-5.957031 0,-3.808594 -1.83106,-5.859375 -1.80664,-2.050782 -4.49219,-2.050782 -2.68554,0 -4.5166,2.050782 -1.83105,2.050781 -1.83105,5.908203 z"
       style="fill:#22c55e"
       id="path120" />
    <path
       d="m 325.63086,88 h -6.86035 V 74.767578 q 0,-4.199219 -0.43946,-5.419922 -0.43945,-1.245117 -1.44043,-1.928711 -0.97656,-0.683593 -2.36816,-0.683593 -1.78223,0 -3.19824,0.976562 -1.41602,0.976563 -1.95313,2.587891 -0.51269,1.611328 -0.51269,5.957031 V 88 h -6.86035 V 62.072266 h 6.37207 v 3.808593 q 3.39355,-4.394531 8.54492,-4.394531 2.27051,0 4.15039,0.830078 1.87988,0.805664 2.83203,2.075196 0.97656,1.269531 1.34277,2.880859 0.39063,1.611328 0.39063,4.614258 z"
       style="fill:#22c55e"
       id="path122" />
    <path
       d="m 337.71582,69.982422 -6.22559,-1.123047 q 1.04981,-3.759766 3.61329,-5.566406 2.56347,-1.806641 7.61718,-1.806641 4.58985,0 6.83594,1.098633 2.24609,1.074219 3.14941,2.758789 0.92774,1.660156 0.92774,6.12793 l -0.0732,8.007812 q 0,3.417969 0.31738,5.053711 0.3418,1.611328 1.24512,3.466797 h -6.78711 q -0.26856,-0.683594 -0.65918,-2.026367 -0.1709,-0.610352 -0.24414,-0.805664 -1.75782,1.708984 -3.75977,2.563476 -2.00195,0.854492 -4.27246,0.854492 -4.00391,0 -6.32324,-2.172851 -2.29492,-2.172852 -2.29492,-5.493164 0,-2.197266 1.0498,-3.90625 1.04981,-1.733399 2.92969,-2.636719 1.9043,-0.927734 5.46875,-1.611328 4.80957,-0.90332 6.66504,-1.68457 v -0.683594 q 0,-1.977539 -0.97656,-2.807617 -0.97657,-0.854492 -3.68653,-0.854492 -1.83105,0 -2.85644,0.732421 -1.02539,0.708008 -1.66016,2.514649 z m 9.17969,5.566406 q -1.31836,0.439453 -4.17481,1.049805 -2.85644,0.610351 -3.73535,1.196289 -1.34277,0.952148 -1.34277,2.416992 0,1.44043 1.07422,2.490234 1.07422,1.049805 2.73437,1.049805 1.85547,0 3.54004,-1.220703 1.24512,-0.927734 1.63574,-2.270508 0.26856,-0.878906 0.26856,-3.344726 z"
       style="fill:#22c55e"
       id="path124" />
    <path
       d="m 366.96387,88 h -6.86035 V 62.072266 h 6.37207 v 3.686523 q 1.63574,-2.612305 2.92968,-3.442383 1.31836,-0.830078 2.97852,-0.830078 2.34375,0 4.5166,1.293945 l -2.12402,5.981446 q -1.7334,-1.123047 -3.22266,-1.123047 -1.44043,0 -2.44141,0.805664 -1.00097,0.78125 -1.58691,2.856445 -0.56152,2.075196 -0.56152,8.691406 z"
       style="fill:#22c55e"
       id="path126" />
  </g>
  <g
     aria-label="NETWORK VISIBILITY &amp; DIAGNOSTICS"
     id="text91"
     style="font-weight:700;font-size:13px;font-family:Inter, Arial, Helvetica, sans-serif;letter-spacing:1.2;fill:#334155">
    <path
       d="m 156.96484,111 v -9.30566 h 1.82813 l 3.80859,6.21435 v -6.21435 h 1.74561 V 111 h -1.88526 l -3.75146,-6.06836 V 111 Z"
       id="path129" />
    <path
       d="m 167.53398,111 v -9.30566 h 6.89991 v 1.57421 h -5.021 v 2.06299 h 4.67188 v 1.56787 h -4.67188 v 2.53272 h 5.19873 V 111 Z"
       id="path131" />
    <path
       d="m 179.49961,111 v -7.73145 h -2.76123 v -1.57421 h 7.39502 v 1.57421 h -2.75488 V 111 Z"
       id="path133" />
    <path
       d="m 187.86611,111 -2.22168,-9.30566 h 1.92334 l 1.40284,6.39209 1.70117,-6.39209 h 2.23437 l 1.63135,6.5 1.42822,-6.5 h 1.8916 L 195.59756,111 h -1.99317 L 191.75088,104.04297 189.90371,111 Z"
       id="path135" />
    <path
       d="m 199.63496,106.4043 q 0,-1.42188 0.42529,-2.38672 0.31739,-0.71094 0.86328,-1.27588 0.55225,-0.56494 1.20606,-0.83789 0.86963,-0.36817 2.00586,-0.36817 2.05664,0 3.28808,1.27588 1.2378,1.27588 1.2378,3.54834 0,2.25342 -1.2251,3.5293 -1.2251,1.26953 -3.27539,1.26953 -2.07568,0 -3.30078,-1.26318 -1.2251,-1.26953 -1.2251,-3.49121 z m 1.93604,-0.0635 q 0,1.58057 0.72998,2.39941 0.72998,0.8125 1.85351,0.8125 1.12354,0 1.84082,-0.80615 0.72363,-0.8125 0.72363,-2.43115 0,-1.59961 -0.70459,-2.38672 -0.69824,-0.78711 -1.85986,-0.78711 -1.16162,0 -1.87256,0.79981 -0.71093,0.79345 -0.71093,2.39941 z"
       id="path137" />
    <path
       d="m 211.33398,111 v -9.30566 h 3.95459 q 1.4917,0 2.16455,0.2539 0.6792,0.24756 1.08545,0.88867 0.40625,0.64112 0.40625,1.46631 0,1.04737 -0.61572,1.73291 -0.61572,0.6792 -1.84082,0.85694 0.60938,0.35547 1.00293,0.78076 0.3999,0.42529 1.07275,1.51074 L 219.7002,111 h -2.24708 l -1.35839,-2.0249 q -0.72364,-1.08545 -0.99024,-1.36475 -0.2666,-0.28564 -0.56494,-0.38721 -0.29834,-0.10791 -0.9458,-0.10791 h -0.38086 V 111 Z m 1.87891,-5.37012 h 1.39014 q 1.35205,0 1.68847,-0.11425 0.33643,-0.11426 0.52686,-0.39356 0.19043,-0.2793 0.19043,-0.69824 0,-0.46973 -0.25391,-0.75537 -0.24756,-0.292 -0.70459,-0.36817 -0.22851,-0.0317 -1.37109,-0.0317 h -1.46631 z"
       id="path139" />
    <path
       d="m 221.94121,111 v -9.30566 h 1.8789 v 4.13232 l 3.7959,-4.13232 h 2.52637 l -3.50391,3.62451 3.69434,5.68115 h -2.43115 l -2.55811,-4.36719 -1.52344,1.55518 V 111 Z"
       id="path141" />
    <path
       d="m 239.68984,111 -3.32617,-9.30566 h 2.0376 l 2.35498,6.8872 2.27881,-6.8872 h 1.99316 L 241.6957,111 Z"
       id="path143" />
    <path
       d="m 247.12959,111 v -9.30566 h 1.87891 V 111 Z"
       id="path145" />
    <path
       d="m 251.52246,107.97217 1.82813,-0.17774 q 0.16503,0.92041 0.6665,1.35205 0.50781,0.43165 1.36475,0.43165 0.90771,0 1.36474,-0.38086 0.46338,-0.38721 0.46338,-0.90137 0,-0.33008 -0.19678,-0.5586 -0.19043,-0.23486 -0.67285,-0.40625 -0.33008,-0.11425 -1.50439,-0.40625 -1.51074,-0.37451 -2.12012,-0.92041 -0.85693,-0.76806 -0.85693,-1.87255 0,-0.71094 0.3999,-1.32666 0.40625,-0.62207 1.16162,-0.9458 0.76172,-0.32374 1.83447,-0.32374 1.75196,0 2.63428,0.76807 0.88867,0.76807 0.93311,2.05029 l -1.87891,0.0825 q -0.12061,-0.71728 -0.52051,-1.02832 -0.39355,-0.31738 -1.18701,-0.31738 -0.81885,0 -1.28223,0.33643 -0.29834,0.21582 -0.29834,0.57763 0,0.33008 0.2793,0.56494 0.35547,0.29834 1.72656,0.62207 1.3711,0.32374 2.02491,0.67286 0.66015,0.34277 1.02832,0.9458 0.37451,0.59668 0.37451,1.479 0,0.79981 -0.44434,1.49805 -0.44433,0.69824 -1.25683,1.04101 -0.8125,0.33643 -2.02491,0.33643 -1.76465,0 -2.71045,-0.8125 -0.9458,-0.81885 -1.12988,-2.38037 z"
       id="path147" />
    <path
       d="m 261.8123,111 v -9.30566 h 1.87891 V 111 Z"
       id="path149" />
    <path
       d="m 266.6876,101.69434 h 3.71973 q 1.10449,0 1.64404,0.0952 0.5459,0.0889 0.97119,0.38086 0.43164,0.29199 0.71729,0.78076 0.28564,0.48242 0.28564,1.08545 0,0.65381 -0.35547,1.19971 -0.34912,0.5459 -0.95215,0.81885 0.85059,0.24755 1.30762,0.84423 0.45703,0.59668 0.45703,1.40284 0,0.63476 -0.29834,1.23779 -0.29199,0.59668 -0.80615,0.9585 -0.50781,0.35546 -1.25684,0.43798 -0.46972,0.0508 -2.26611,0.0635 h -3.16748 z m 1.87891,1.54882 v 2.15186 h 1.23144 q 1.09815,0 1.36475,-0.0317 0.48242,-0.0571 0.75537,-0.33008 0.27929,-0.27929 0.27929,-0.72998 0,-0.43164 -0.24121,-0.69824 -0.23486,-0.27295 -0.70459,-0.33008 -0.27929,-0.0317 -1.60595,-0.0317 z m 0,3.70069 v 2.48828 h 1.73925 q 1.01563,0 1.28858,-0.0571 0.41894,-0.0762 0.6792,-0.36816 0.2666,-0.29834 0.2666,-0.79346 0,-0.41895 -0.20313,-0.71094 -0.20312,-0.29199 -0.59033,-0.42529 -0.38086,-0.1333 -1.66308,-0.1333 z"
       id="path151" />
    <path
       d="m 277.2123,111 v -9.30566 h 1.87891 V 111 Z"
       id="path153" />
    <path
       d="m 282.13203,111 v -9.22949 h 1.87891 v 7.66162 h 4.67188 V 111 Z"
       id="path155" />
    <path
       d="m 291.16504,111 v -9.30566 h 1.87891 V 111 Z"
       id="path157" />
    <path
       d="m 298.12871,111 v -7.73145 h -2.76123 v -1.57421 h 7.39502 v 1.57421 h -2.75489 V 111 Z"
       id="path159" />
    <path
       d="m 307.61874,111 v -3.9165 l -3.40869,-5.38916 h 2.20264 l 2.18994,3.68164 2.14551,-3.68164 h 2.16455 l -3.42139,5.40185 V 111 Z"
       id="path161" />
    <path
       d="m 327.85567,109.86377 -1.0791,1.37744 q -0.79346,-0.38721 -1.52344,-1.06641 -0.56494,0.50782 -1.19971,0.74903 -0.63476,0.24121 -1.51074,0.24121 -1.73926,0 -2.61524,-0.97754 -0.67919,-0.75537 -0.67919,-1.73926 0,-0.89502 0.5332,-1.60595 0.5332,-0.71729 1.59326,-1.24415 -0.47607,-0.56494 -0.71729,-1.07275 -0.24121,-0.51416 -0.24121,-0.97119 0,-0.84424 0.67286,-1.42822 0.67919,-0.59034 1.92968,-0.59034 1.20606,0 1.88526,0.61573 0.6792,0.61572 0.6792,1.50439 0,0.56494 -0.33643,1.07276 -0.33643,0.50781 -1.3584,1.14892 l 1.29492,1.70752 q 0.22852,-0.40625 0.39356,-1.06006 l 1.6123,0.36817 q -0.24121,0.85693 -0.41894,1.25683 -0.17774,0.39356 -0.38086,0.66016 0.29834,0.2793 0.76806,0.61572 0.47608,0.33008 0.69825,0.43799 z m -4.85596,-5.05908 0.48242,-0.36817 q 0.53321,-0.41259 0.53321,-0.81884 0,-0.34278 -0.26026,-0.58399 -0.25391,-0.24121 -0.69189,-0.24121 -0.4253,0 -0.66651,0.21582 -0.24121,0.20947 -0.24121,0.48877 0,0.33008 0.40625,0.79981 z m -0.69824,1.93603 q -0.61572,0.31104 -0.92041,0.74903 -0.30469,0.43798 -0.30469,0.89502 0,0.57763 0.37451,0.9458 0.38086,0.36181 1.01563,0.36181 0.41894,0 0.80615,-0.16504 0.38721,-0.16504 0.84424,-0.54589 z"
       id="path163" />
    <path
       d="m 335.0164,101.69434 h 3.43409 q 1.16162,0 1.77099,0.17773 0.81885,0.24121 1.40283,0.85693 0.58399,0.61573 0.88868,1.51075 0.30468,0.88867 0.30468,2.19629 0,1.14892 -0.28564,1.98046 -0.34912,1.01563 -0.99658,1.64405 -0.48877,0.47607 -1.32032,0.74267 Q 339.59306,111 338.55205,111 h -3.53565 z m 1.87891,1.57421 v 6.16358 h 1.40283 q 0.78711,0 1.13623,-0.0889 0.45703,-0.11426 0.75537,-0.38721 0.30469,-0.27294 0.49512,-0.89501 0.19043,-0.62842 0.19043,-1.70752 0,-1.07911 -0.19043,-1.65674 -0.19043,-0.57764 -0.5332,-0.90137 -0.34278,-0.32373 -0.86963,-0.43799 -0.39356,-0.0889 -1.54248,-0.0889 z"
       id="path165" />
    <path
       d="m 345.5538,111 v -9.30566 h 1.87891 V 111 Z"
       id="path167" />
    <path
       d="m 358.81436,111 h -2.04394 l -0.8125,-2.11377 h -3.71973 L 351.47012,111 h -1.99316 l 3.62451,-9.30566 h 1.98682 z m -3.45947,-3.68164 -1.28223,-3.45313 -1.25683,3.45313 z"
       id="path169" />
    <path
       d="m 365.34004,107.57861 v -1.56787 h 4.04981 v 3.70703 q -0.59034,0.57129 -1.71387,1.00928 -1.11719,0.43164 -2.26611,0.43164 -1.45996,0 -2.54541,-0.60937 -1.08545,-0.61573 -1.63135,-1.75196 -0.5459,-1.14257 -0.5459,-2.48193 0,-1.45361 0.60938,-2.5835 0.60937,-1.12988 1.78369,-1.73291 0.89502,-0.46338 2.22802,-0.46338 1.73291,0 2.70411,0.72999 0.97753,0.72363 1.25683,2.00585 l -1.86621,0.34913 q -0.19678,-0.68555 -0.74268,-1.07911 -0.53955,-0.3999 -1.35205,-0.3999 -1.23144,0 -1.96142,0.78076 -0.72363,0.78077 -0.72363,2.3169 0,1.65674 0.73632,2.48828 0.73633,0.82519 1.92969,0.82519 0.59033,0 1.18066,-0.22851 0.59668,-0.23486 1.02198,-0.56494 v -1.18067 z"
       id="path171" />
    <path
       d="m 372.3418,111 v -9.30566 h 1.82812 l 3.8086,6.21435 v -6.21435 h 1.7456 V 111 h -1.88525 l -3.75147,-6.06836 V 111 Z"
       id="path173" />
    <path
       d="m 382.53008,106.4043 q 0,-1.42188 0.42529,-2.38672 0.31738,-0.71094 0.86328,-1.27588 0.55225,-0.56494 1.20605,-0.83789 0.86963,-0.36817 2.00586,-0.36817 2.05664,0 3.28809,1.27588 1.23779,1.27588 1.23779,3.54834 0,2.25342 -1.2251,3.5293 -1.22509,1.26953 -3.27539,1.26953 -2.07568,0 -3.30078,-1.26318 -1.22509,-1.26953 -1.22509,-3.49121 z m 1.93603,-0.0635 q 0,1.58057 0.72998,2.39941 0.72998,0.8125 1.85352,0.8125 1.12353,0 1.84082,-0.80615 0.72363,-0.8125 0.72363,-2.43115 0,-1.59961 -0.70459,-2.38672 -0.69824,-0.78711 -1.85986,-0.78711 -1.16162,0 -1.87256,0.79981 -0.71094,0.79345 -0.71094,2.39941 z"
       id="path175" />
    <path
       d="m 393.74667,107.97217 1.82813,-0.17774 q 0.16504,0.92041 0.6665,1.35205 0.50781,0.43165 1.36475,0.43165 0.90771,0 1.36474,-0.38086 0.46338,-0.38721 0.46338,-0.90137 0,-0.33008 -0.19677,-0.5586 -0.19043,-0.23486 -0.67286,-0.40625 -0.33007,-0.11425 -1.50439,-0.40625 -1.51074,-0.37451 -2.12012,-0.92041 -0.85693,-0.76806 -0.85693,-1.87255 0,-0.71094 0.3999,-1.32666 0.40625,-0.62207 1.16162,-0.9458 0.76172,-0.32374 1.83448,-0.32374 1.75195,0 2.63427,0.76807 0.88867,0.76807 0.93311,2.05029 l -1.87891,0.0825 q -0.1206,-0.71728 -0.52051,-1.02832 -0.39355,-0.31738 -1.18701,-0.31738 -0.81885,0 -1.28222,0.33643 -0.29834,0.21582 -0.29834,0.57763 0,0.33008 0.27929,0.56494 0.35547,0.29834 1.72657,0.62207 1.37109,0.32374 2.0249,0.67286 0.66015,0.34277 1.02832,0.9458 0.37451,0.59668 0.37451,1.479 0,0.79981 -0.44434,1.49805 -0.44433,0.69824 -1.25683,1.04101 -0.8125,0.33643 -2.0249,0.33643 -1.76465,0 -2.71045,-0.8125 -0.9458,-0.81885 -1.12989,-2.38037 z"
       id="path177" />
    <path
       d="m 406.18839,111 v -7.73145 h -2.76124 v -1.57421 h 7.39502 v 1.57421 h -2.75488 V 111 Z"
       id="path179" />
    <path
       d="m 413.17743,111 v -9.30566 h 1.87891 V 111 Z"
       id="path181" />
    <path
       d="m 424.00049,107.57861 1.82178,0.57764 q -0.41895,1.52344 -1.39649,2.26611 -0.97119,0.73633 -2.46924,0.73633 -1.85351,0 -3.04687,-1.26318 -1.19336,-1.26953 -1.19336,-3.46582 0,-2.32324 1.19971,-3.60547 1.1997,-1.28858 3.15478,-1.28858 1.70752,0 2.77393,1.00928 0.63476,0.59668 0.95214,1.71387 l -1.85986,0.44434 q -0.16504,-0.72364 -0.69189,-1.14258 -0.52051,-0.41895 -1.26953,-0.41895 -1.03467,0 -1.68213,0.74268 -0.64112,0.74267 -0.64112,2.40576 0,1.76465 0.63477,2.51367 0.63476,0.74902 1.65039,0.74902 0.74902,0 1.28857,-0.47607 0.53955,-0.47607 0.77442,-1.49805 z"
       id="path183" />
    <path
       d="m 428.15851,107.97217 1.82812,-0.17774 q 0.16504,0.92041 0.66651,1.35205 0.50781,0.43165 1.36474,0.43165 0.90772,0 1.36475,-0.38086 0.46338,-0.38721 0.46338,-0.90137 0,-0.33008 -0.19678,-0.5586 -0.19043,-0.23486 -0.67285,-0.40625 -0.33008,-0.11425 -1.5044,-0.40625 -1.51074,-0.37451 -2.12011,-0.92041 -0.85694,-0.76806 -0.85694,-1.87255 0,-0.71094 0.39991,-1.32666 0.40625,-0.62207 1.16162,-0.9458 0.76172,-0.32374 1.83447,-0.32374 1.75195,0 2.63428,0.76807 0.88867,0.76807 0.9331,2.05029 l -1.8789,0.0825 q -0.12061,-0.71728 -0.52051,-1.02832 -0.39356,-0.31738 -1.18701,-0.31738 -0.81885,0 -1.28223,0.33643 -0.29834,0.21582 -0.29834,0.57763 0,0.33008 0.2793,0.56494 0.35547,0.29834 1.72656,0.62207 1.37109,0.32374 2.0249,0.67286 0.66016,0.34277 1.02832,0.9458 0.37451,0.59668 0.37451,1.479 0,0.79981 -0.44433,1.49805 -0.44434,0.69824 -1.25684,1.04101 -0.8125,0.33643 -2.0249,0.33643 -1.76465,0 -2.71045,-0.8125 -0.9458,-0.81885 -1.12988,-2.38037 z"
       id="path185" />
  </g>
</svg>
